<?xml version="1.0" encoding="UTF-8"?>
<svg viewBox="0 0 172.36546 156.86761" xmlns="http://www.w3.org/2000/svg">
 <defs>
  <filter id="i">
   <feGaussianBlur stdDeviation=".6212"/>
  </filter>
  <filter id="z">
   <feGaussianBlur stdDeviation="2.4616"/>
  </filter>
  <filter id="d">
   <feGaussianBlur stdDeviation="10.8402"/>
  </filter>
  <filter id="t">
   <feGaussianBlur stdDeviation=".4299"/>
  </filter>
  <filter id="s">
   <feGaussianBlur stdDeviation=".4286"/>
  </filter>
  <filter id="ah">
   <feGaussianBlur stdDeviation=".3368"/>
  </filter>
  <filter id="ag">
   <feGaussianBlur stdDeviation=".2869"/>
  </filter>
  <filter id="af">
   <feGaussianBlur stdDeviation=".2389"/>
  </filter>
  <filter id="ac">
   <feGaussianBlur stdDeviation=".216"/>
  </filter>
  <filter id="ab">
   <feGaussianBlur stdDeviation=".4251"/>
  </filter>
  <filter id="u" x="-.34883" y="-.05975" width="1.6976" height="1.1195">
   <feGaussianBlur stdDeviation="1.281"/>
  </filter>
  <filter id="ak" x="-.68589" y="-.07851" width="2.3718" height="1.157">
   <feGaussianBlur stdDeviation="2.3457"/>
  </filter>
  <filter id="aj" x="-.50088" y="-.04501" width="2.0018" height="1.09">
   <feGaussianBlur stdDeviation="1.352"/>
  </filter>
  <filter id="am" x="-.27935" y="-.05184" width="1.5587" height="1.1037">
   <feGaussianBlur stdDeviation="1.5308"/>
  </filter>
  <filter id="w" x="-.261" y="-.07914" width="1.522" height="1.1583">
   <feGaussianBlur stdDeviation="1.8205"/>
  </filter>
  <filter id="l" x="-.18127" y="-.09693" width="1.3625" height="1.1939">
   <feGaussianBlur stdDeviation="1.2123"/>
  </filter>
  <filter id="al" x="-.21687" y="-.10975" width="1.4338" height="1.2195">
   <feGaussianBlur stdDeviation="1.6043"/>
  </filter>
  <filter id="f" x="-.25626" y="-.09715" width="1.5125" height="1.1943">
   <feGaussianBlur stdDeviation="1.3248"/>
  </filter>
  <filter id="j" x="-.15509" y="-.17668" width="1.3102" height="1.3534">
   <feGaussianBlur stdDeviation="1.7329"/>
  </filter>
  <filter id="g" x="-.14658" y="-.1269" width="1.2932" height="1.2538">
   <feGaussianBlur stdDeviation="1.8078"/>
  </filter>
  <filter id="h" x="-.16888" y="-.02975" width="1.3378" height="1.0595">
   <feGaussianBlur stdDeviation=".9401"/>
  </filter>
  <filter id="k" x="-.12224" y="-.05698" width="1.2445" height="1.114">
   <feGaussianBlur stdDeviation="1.3166"/>
  </filter>
  <filter id="ai" x="-.2225" y="-.06215" width="1.445" height="1.1243">
   <feGaussianBlur stdDeviation="1.0689"/>
  </filter>
  <filter id="x" x="-.22864" y="-.04207" width="1.4573" height="1.0841">
   <feGaussianBlur stdDeviation="1.3234"/>
  </filter>
  <filter id="v" x="-.1639" y="-.13122" width="1.3278" height="1.2624">
   <feGaussianBlur stdDeviation="1.6631"/>
  </filter>
  <filter id="ae" x="-.1393" y="-.01331" width="1.2786" height="1.0266">
   <feGaussianBlur stdDeviation=".2024"/>
  </filter>
  <filter id="ad" x="-.01017" y="-.2179" width="1.0203" height="1.4358">
   <feGaussianBlur stdDeviation=".3655"/>
  </filter>
  <filter id="aa" x="-.13992" y="-.02257" width="1.2798" height="1.0451">
   <feGaussianBlur stdDeviation=".2186"/>
  </filter>
  <filter id="y" x="-.1102" y="-.01066" width="1.2204" height="1.0213"/>
  <linearGradient id="e" x1="56.824" x2="47.431" y1="72.514" y2="64.654" gradientUnits="userSpaceOnUse">
   <stop offset="0"/>
   <stop stop-color="#b3b3b3" stop-opacity="0" offset="1"/>
  </linearGradient>
  <linearGradient id="q" x1="81.858" x2="81.819" y1="93.624" y2="29.118" gradientUnits="userSpaceOnUse">
   <stop stop-opacity=".4462" offset="0"/>
   <stop stop-opacity="0" offset="1"/>
  </linearGradient>
  <linearGradient id="r" x1="99.242" x2="93.684" y1="21.47" y2="17.382" gradientUnits="userSpaceOnUse">
   <stop stop-color="#ccc" offset="0"/>
   <stop stop-color="#fff" offset="1"/>
  </linearGradient>
  <linearGradient id="p" x1="61.069" x2="69.57" y1="21.633" y2="16.974" gradientUnits="userSpaceOnUse">
   <stop stop-color="#808080" offset="0"/>
   <stop stop-color="#fff" offset="1"/>
  </linearGradient>
  <linearGradient id="o" x1="81.562" x2="81.399" y1="13.565" y2="4.8183" gradientUnits="userSpaceOnUse">
   <stop stop-color="#666" offset="0"/>
   <stop stop-color="#fff" offset="1"/>
  </linearGradient>
  <linearGradient id="n" x1="81.545" x2="81.777" y1="30.178" y2="7.7521" gradientUnits="userSpaceOnUse">
   <stop offset="0"/>
   <stop stop-color="#666" stop-opacity="0" offset="1"/>
  </linearGradient>
  <radialGradient id="m" cx="108.39" cy="124.97" r="80.775" gradientTransform="matrix(1.9063 -.00987 .01657 3.1906 -135.81 -308.26)" gradientUnits="userSpaceOnUse">
   <stop stop-color="#69c" offset="0"/>
   <stop stop-color="#036" offset="1"/>
  </radialGradient>
  <radialGradient id="c" cx="298.86" cy="306.83" r="189.29" gradientTransform="matrix(1.9901 .00021103 -.00018758 1.7691 -333.04 -271.62)" gradientUnits="userSpaceOnUse">
   <stop stop-color="#fff" offset="0"/>
   <stop stop-color="#333" offset="1"/>
  </radialGradient>
  <radialGradient id="b" cx="310.42" cy="406.01" r="189.29" gradientTransform="matrix(1.9901 .00021103 -.00018758 1.7691 -333.04 -271.62)" gradientUnits="userSpaceOnUse">
   <stop stop-color="#fff" offset="0"/>
   <stop offset="1"/>
  </radialGradient>
  <radialGradient id="a" cx="294.5" cy="423.23" r="189.29" gradientTransform="matrix(1.9901 .00021103 -.00018758 1.7691 -333.04 -271.62)" gradientUnits="userSpaceOnUse">
   <stop stop-color="#fff" offset="0"/>
   <stop stop-color="#888" offset="1"/>
  </radialGradient>
 </defs>
 <g transform="translate(2.1015 2.3053)">
  <path d="m69.456 4.0024c11.262 1.5119 20.644 1.1439 29.25 0l5.25 7.25c22.644 8.5823 35.766 7.6457 60 21-3.1189 10.486-3.7062 21.984-13 30-7.75-6.088-15.5-4.7999-23.25-6.75 0 0 1.0423 13.155 0 19.42-1.4026 8.4308 1.4592 17.719 0 25.64-1.3092 7.1069 1.0423 15.704 0 21.679-1.232 7.0636 0 21.511 0 21.511-29.128 5.3015-58.037 6.6657-86.5 0 0 0-1.1111-11.531 0-17.133 1.6676-8.4077-1.2875-18.158 0-27.099 1.2507-8.6856 2.3833-17.296 0-25.432-1.8761-6.4039 0-18.586 0-18.586-6.7408 0.75138-12.342 0.20025-23.5 6-8.3758-6.9854-10.991-18.452-13.5-30 25.954-11.671 39.005-13.262 60.25-19.75z" fill-opacity=".2922" fill-rule="evenodd" filter="url(#z)"/>
 </g>
 <g transform="translate(2.1015 2.3053)">
  <path d="m65.715 0.56831c11.262 1.5119 20.644 1.1439 29.25 0l5.25 7.25c22.644 8.5823 35.766 7.6457 60 21-3.1189 10.486-3.7062 21.984-13 30-7.75-6.088-15.5-4.7999-23.25-6.75 0 0 1.0423 13.155 0 19.42-1.4026 8.4308 1.4592 17.719 0 25.64-1.3092 7.1069 1.0423 15.704 0 21.679-1.232 7.0636 0 21.511 0 21.511-29.128 5.3015-58.037 6.6657-86.5 0 0 0-1.1111-11.531 0-17.133 1.6676-8.4077-1.2875-18.158 0-27.099 1.2507-8.6856 2.3833-17.296 0-25.432-1.8761-6.4039 0-18.586 0-18.586-6.7408 0.75138-12.342 0.20025-23.5 6-8.3759-6.9854-10.991-18.452-13.5-30 25.954-11.671 39.005-13.262 60.25-19.75z" fill="url(#m)" fill-rule="evenodd"/>
 </g>
 <path d="m42.081 23.955s7.5566-1.7712 11.335-3.9764c3.1436-1.8349 10.336-3.5236 10.336-3.5236" fill="none" stroke="#99ceff" stroke-opacity=".2192"/>
 <path d="m123.48 23.868s-8.5137-1.4268-11.933-4.2462c-3.2498-2.6797-11.294-3.6669-11.294-3.6669" fill="none" stroke="#99ceff" stroke-opacity=".2196"/>
 <path d="m157.93 28.81c-1.5068 2.8206-3.892 7.6536-3.6133 11.389 0.39558 5.3017-1.0741 8.4646-4.3221 10.808-4.1436 2.9902-4.3721 5.2216-4.6346 7.2352" fill="none" stroke="#99ceff" stroke-opacity=".2196"/>
 <path d="m6.3697 28.834c0.63299 1.2466 0.82265 3.321 0.84895 4.7315 0.05002 2.6831 1.0382 5.5318 2.4604 7.6655 1.3374 2.0064 2.5462 4.1906 3.1103 6.5311 0.54053 2.2426 1.3264 3.964 3.2806 5.4958 2.0556 1.6112 2.1401 3.544 3.2682 5.2972" fill="none" stroke="#99ceff" stroke-opacity=".2196"/>
 <path d="m39.501 138.96c5.4126 1.9642 11.259 0.48347 16.238 2.0288 4.4542 1.3825 9.6245 2.1971 13.766 1.9541 3.5578-0.20873 7.159-0.11034 10.735-0.30484 5.4876-0.29851 10.988 0.74416 16.482-0.16025 4.0113-0.66032 8.1315-1.3368 12.266-1.2372 5.7041 0.13736 11.4-0.82594 16.764-2.2806" fill="none" stroke="#99ceff" stroke-opacity=".2196"/>
 <path d="m125.28 17.232c-2.061 11.043-5.9702 25.399 0.52265 37.072" fill="none" stroke="#99ceff" stroke-opacity=".2196"/>
 <path d="m40.12 16.994c2.061 11.043 5.9134 25.617-0.5795 37.291" fill="none" stroke="#99ceff" stroke-opacity=".2196"/>
 <path d="m70.501 11.455c7.4037-2.3148 14.936-1.9888 23 0" fill="none" stroke="#5ca2e3" stroke-opacity=".2196"/>
 <path d="m80.251 22.205h3.75v23.25h-3.75v-23.25z" fill="url(#q)" stroke="#99ceff" stroke-linecap="round" stroke-opacity=".2196"/>
 <path d="m123.2 24.375s-8.787-1.5138-12.206-4.3331c-3.2498-2.6797-11.294-3.6669-11.294-3.6669" fill="none" filter="url(#ag)" stroke="#000" stroke-opacity=".0314"/>
 <path d="m41.971 24.615s7.8861-1.7712 11.664-3.9764c3.1436-1.8349 10.336-3.5236 10.336-3.5236" fill="none" filter="url(#af)" stroke="#000" stroke-opacity=".0314"/>
 <path d="m41.131 17.235c2.061 11.043 6.2429 24.826-0.25 36.5" fill="none" filter="url(#ae)" stroke="#000" stroke-opacity=".0365"/>
 <path d="m39.285 139.61c5.4126 1.9642 11.259 0.48347 16.238 2.0288 4.4542 1.3825 9.6245 2.1971 13.766 1.9541 3.5578-0.20873 7.159-0.11034 10.735-0.30484 5.4876-0.29851 10.988 0.74416 16.482-0.16025 4.0113-0.66032 8.1315-1.3368 12.266-1.2372 5.7041 0.13736 11.4-0.82594 16.764-2.2806" fill="none" filter="url(#ad)" stroke="#000" stroke-opacity=".0639"/>
 <path d="m6.8749 28.834c0.63299 1.2466 0.82265 3.321 0.84895 4.7315 0.05002 2.6831 1.0382 5.5318 2.4604 7.6655 1.3374 2.0064 2.5462 4.1906 3.1103 6.5311 0.54053 2.2426 1.3264 3.964 3.2806 5.4958 2.0556 1.6112 2.1401 3.544 3.2682 5.2972" fill="none" filter="url(#ac)" stroke="#000" stroke-opacity=".0548"/>
 <path d="m158.41 29.455c-1.5068 2.8206-3.892 7.6536-3.6133 11.389 0.39558 5.3017-1.0741 8.4646-4.3221 10.808-4.1436 2.9902-4.3721 5.2216-4.6346 7.2352" fill="none" filter="url(#ab)" stroke="#000" stroke-opacity=".0548"/>
 <path d="m80.823 22.396h3.75v23.25h-3.75v-23.25z" fill="none" filter="url(#aa)" stroke="#000" stroke-linecap="round" stroke-opacity=".0502"/>
 <path d="m126.02 17.48c-2.061 11.043-5.9702 25.399 0.52265 37.072" fill="none" filter="url(#y)" stroke="#000" stroke-opacity=".0411"/>
 <g transform="matrix(.03584 0 0 .03584 92.178 18.106)" fill="#eee" font-family="TitilliumMaps26L" font-size="79.306" font-weight="900" text-anchor="middle">
  <g fill="#eee" font-family="Lato" font-size="83.711" font-weight="normal" letter-spacing="0" word-spacing="0">
   <path d="m225.33 646.05c3.1234 0.73762 5.8163 1.9039 8.0764 3.4982 2.2882 1.601 4.0788 3.5289 5.3712 5.7834 1.3205 2.2612 2.1213 4.8152 2.4032 7.6624 0.31652 2.8267 0.0779 5.852-0.71333 9.0764-0.79801 3.2515-1.9922 6.0655-3.5803 8.4424-1.5602 2.3836-3.445 4.2892-5.6537 5.7171-2.1808 1.4344-4.6477 2.3571-7.4012 2.7677-2.7191 0.39009-5.6249 0.22015-8.7197-0.51043s-5.7795-1.8803-8.0562-3.4498c-2.2424-1.59-4.0235-3.5156-5.3441-5.7767s-2.1483-4.8073-2.4825-7.6384-0.11787-5.8761 0.65151-9.1346c0.76295-3.2314 1.9284-6.038 3.4989-8.4193 1.5768-2.4084 3.4693-4.3267 5.678-5.7546s4.6851-2.3481 7.4284-2.761c2.7714-0.40621 5.7201-0.24024 8.8435 0.49731zm-8.8558 36.782c4.1873 0.98852 7.6413 0.37061 10.368-1.8524 2.7327-2.2501 4.6963-5.8142 5.8851-10.693 1.1954-4.9063 1.0895-8.9733-0.32315-12.202s-4.2296-5.3417-8.4452-6.3372c-2.1359-0.50435-4.0756-0.5897-5.818-0.25583s-3.306 1.0398-4.6902 2.1176c-1.3562 1.0845-2.5332 2.541-3.5314 4.3694-0.96365 1.8079-1.7356 3.9334-2.3166 6.3763s-0.84886 4.6874-0.80414 6.7334c0.0727 2.0526 0.46743 3.8658 1.184 5.4397 0.75091 1.5533 1.8236 2.8672 3.2183 3.9418s3.1522 1.8622 5.2739 2.363z"/>
   <path d="m241.21 708.79 13.637-55.086 4.4734 1.0564c1.0691 0.25251 1.6197 0.91283 1.6515 1.9809l-0.58145 5.0224 0.17136-0.12299c2.3176-1.5951 4.7914-2.72 7.4218-3.368 2.7239-0.65629 5.6542-0.55498 8.775 0.31558 2.4908 0.69491 4.6322 1.7986 6.406 3.3005 1.7814 1.4751 3.1274 3.3139 4.0287 5.5058 0.90907 2.1652 1.349 4.6615 1.3235 7.4835s-0.56052 5.9125-1.5841 9.2748c-0.90998 2.9888-2.1691 5.6501-3.7566 7.9939-1.5795 2.3171-3.3933 4.1997-5.4394 5.656-2.0383 1.4295-4.2935 2.3792-6.7799 2.8543-2.4524 0.4559-5.0292 0.30821-7.7586-0.4447-2.5154-0.69387-4.5722-1.6973-6.1693-3.0205-1.5701-1.316-2.8594-2.9274-3.8664-4.837l-4.5387 18.191-0.23452-0.0619zm31.468-45.078c-2.4665-0.67916-4.7758-0.72406-6.917-0.14114-2.113 0.59052-4.1897 1.6726-6.2268 3.2437l-4.9642 19.897c0.90003 2.1408 2.0451 3.786 3.439 4.9384 1.421 1.1597 3.1036 2.0033 5.0514 2.5363 3.8143 1.0437 7.0897 0.50769 9.8997-1.6169s4.9528-5.6801 6.3889-10.695c0.76022-2.6551 1.1645-5.0078 1.2042-7.0594 0.0675-2.0435-0.19355-3.8046-0.78493-5.2813-0.58393-1.5035-1.4803-2.732-2.6854-3.6809s-2.6756-1.6639-4.4049-2.1401z"/>
   <path d="m319.81 672.67c2.6862 1.0686 5.0296 2.5299 6.9603 4.3398 0.14674 0.13483 0.29064 0.27117 0.43166 0.40899 1.6422 1.5945 3.0211 3.5436 3.9343 5.7029 1.0004 2.3109 1.3878 4.8253 1.0859 7.4072-0.25862 2.5754-1.2801 5.1035-2.8899 7.645-0.62609 0.98837-1.1517 1.5781-1.5704 1.7774s-0.9163 0.12172-1.5149-0.22374c-2.3646-1.3645-4.8915-2.5573-7.4576-3.7282-5.789-2.6226-11.779-4.856-17.841-6.9566l-1.1675-0.40244c-0.8136 2.5527-1.2182 4.8766-1.2295 6.9694-6.3e-4 0.11763-2.2e-4 0.23455 1e-3 0.35077 0.0266 1.9526 0.34942 3.7072 0.95575 5.2645 0.65173 1.6237 1.5957 3.0163 2.8183 4.1854 1.2323 1.1429 2.7178 2.0525 4.453 2.7508 1.6146 0.64977 3.0466 1.0312 4.3346 1.1406 0.56812 0.0404 1.1068 0.0662 1.6172 0.0765 0.70429 0.043 1.3414 0.0398 1.9211-8.9e-4 1.0161-0.0714 1.8498-0.18273 2.5291-0.31732 0.71307-0.14918 1.2428-0.13369 1.5875 0.0425 0.44604 0.22796 0.66294 0.61198 0.65691 1.1472 0.027 1.044 4.1e-4 2.068-0.091 3.0667-1.0906 0.64859-2.1956 1.1587-3.3994 1.4904-1.1908 0.30698-2.4328 0.45866-3.7959 0.38871-0.62714-0.0278-1.2727-0.10048-1.9406-0.22399-0.71852-0.0939-1.4376-0.22396-2.16-0.39124-1.3675-0.28848-2.69-0.68372-3.9759-1.1953-2.455-0.97673-4.6421-2.3047-6.5473-4.0256-0.95982-0.89177-1.8251-1.8676-2.5893-2.9288-0.7178-1.0037-1.3399-2.0815-1.8658-3.2352-1.0452-2.3869-1.62-5.0729-1.7082-8.066s0.4078-6.2323 1.5222-9.7125c0.90175-2.816 2.1818-5.3054 3.8648-7.4561 1.7108-2.1415 3.7224-3.8158 6.0442-5.0073 1.3352-0.69767 2.7603-1.2165 4.2747-1.553 1.1236-0.25339 2.2999-0.40396 3.5308-0.44729 2.8911-0.12769 5.9734 0.425 9.2204 1.7166zm-1.8493 5.165c-3.7106-1.4788-6.9763-1.5431-9.7574-0.31012-1.6839 0.73312-3.1594 1.8656-4.4372 3.3833-0.82644 0.97997-1.5698 2.1212-2.2329 3.4219 0.31212 0.10717 0.62412 0.21474 0.93602 0.3227 6.1315 2.1217 12.254 4.4077 18.236 7.1144 1.0684 0.47892 2.1439 0.97264 3.2181 1.4913 0.75393-1.5616 1.2119-3.0967 1.3503-4.6086 0.15027-1.5372-0.031-2.9941-0.5208-4.3394-0.0935-0.26811-0.1989-0.53018-0.3156-0.78585-0.50187-1.0756-1.2219-2.063-2.154-2.9515-1.119-1.1178-2.5683-2.0387-4.3229-2.738z"/>
   <path d="m327.68 725.34 17.15-38.812c0.59347 0.19695 1.4115 0.45285 2.4174 0.80929 0.66048 0.2341 1.0424 0.84533 1.052 1.7727-5.6e-4 0.0829-4e-3 0.16866-0.0107 0.25732-0.28154 1.5177-0.55037 3.0379-0.80687 4.5606 2.0672-1.5254 4.0998-2.7219 6.2224-3.5765 2.1456-0.84988 4.4524-1.1048 7.1269-0.73504 0.7847 0.10852 1.538 0.26431 2.2584 0.46945 1.1823 0.33148 2.2558 0.78794 3.2249 1.3763 1.5874 0.92128 2.8844 2.1253 3.8897 3.6327 1.0341 1.4818 1.793 3.2256 2.2629 5.2416s0.64236 4.22 0.49181 6.6138l-1.6942 26.931c-2.8173-0.17887-5.6455-0.40456-8.4835-0.6817l2.6538-26.855c0.31539-3.1921-0.17864-5.7314-1.4167-7.6377-0.4629-0.73989-1.0445-1.3636-1.7448-1.8748-1.1285-0.82653-2.5523-1.3554-4.2573-1.6123-2.022-0.30464-3.9355-0.10209-5.85 0.58379-1.89 0.69104-3.7526 1.716-5.6771 3.0622l-8.3152 30.086-1.4053-0.39178c-2.6263-0.57348-5.6923-1.6058-9.0889-3.2197z"/>
   <path d="m413.4 698.64c-0.20135 0.32196-0.40812 0.57413-0.61996 0.75647s-0.52757 0.28786-0.94666 0.31555-0.89133-0.10951-1.4146-0.41236c-0.49713-0.33236-1.1343-0.68479-1.91-1.0593-0.43321-0.20913-0.91704-0.40295-1.4514-0.58204-0.42407-0.14232-0.87971-0.27541-1.3668-0.39959-1.0767-0.31041-2.3908-0.43114-3.9441-0.36957-2.0526 0.0815-3.8499 0.51407-5.4108 1.307-1.5616 0.76506-2.8738 1.8482-3.9455 3.2577-1.0438 1.4092-1.8472 3.1031-2.4063 5.0876-0.53082 1.9844-0.80276 4.2037-0.79964 6.6602 3e-3 2.5683 0.31162 4.8575 0.94306 6.865 0.6313 1.9796 1.526 3.6497 2.6861 5.0037 1.1598 1.3261 2.5695 2.3362 4.2202 3.0216 1.6802 0.65671 3.5544 0.94731 5.6039 0.86455 1.959-0.0791 3.5562-0.36791 4.7918-0.85231 0.43887-0.18216 0.85016-0.36888 1.234-0.55991 0.69884-0.34464 1.308-0.70379 1.8278-1.0762 0.80665-0.57795 1.4638-1.0939 1.9738-1.5456 0.50821-0.47953 1.0288-0.73726 1.5644-0.77334 0.68433-0.0461 1.2064 0.15485 1.568 0.6047 0.80963 0.85162 1.6243 1.7008 2.444 2.5474-1.8069 2.406-4.1911 4.2404-7.1365 5.4738-0.63102 0.25812-1.2721 0.49159-1.9229 0.70027-2.3741 0.77272-4.8914 1.2134-7.5397 1.3108-2.9103 0.10698-5.6567-0.31644-8.1985-1.2608-2.511-0.94473-4.6923-2.355-6.5181-4.2114-1.8257-1.8844-3.2337-4.2-4.225-6.9298-0.96137-2.7291-1.3724-5.8263-1.2776-9.2849 0.0864-3.1518 0.61426-6.0531 1.5435-8.7124 0.95724-2.6586 2.2692-4.9373 3.9284-6.8519 1.6868-1.9422 3.7196-3.4654 6.1211-4.5892s5.147-1.7364 8.2856-1.8566c2.0163-0.0772 3.8904 0.0736 5.6275 0.45967 0.75105 0.16591 1.4754 0.37601 2.1736 0.63076 2.3024 0.81291 4.3844 2.0245 6.2585 3.6456-0.58218 0.93968-1.1693 1.878-1.7612 2.8149z"/>
   <path d="m428.52 670.3 7.4433 61.205c-2.7061 0.32959-5.4138 0.63033-8.1224 0.90279l-6.165-61.35c2.2871-0.22939 4.5688-0.48174 6.8442-0.75764z"/>
   <path d="m451.49044,686.24632 7.75112,41.68246c-2.69124.50016-5.38601.96984-8.08365,1.40959l-6.81779-41.84521c2.38967-.38916 4.77333-.80458 7.15032-1.24684zm-.89843-13.37471c.13626.7126.12405,1.41107-.0395,2.09532-.14297.65205-.401,1.26881-.77547,1.84937-.35367.54841-.80528,1.0147-1.35452,1.39757s-1.16451.63425-1.84356.75268-1.34345.0905-1.99061-.0837c-.62104-.17848-1.20487-.46392-1.75042-.85567-.52395-.42344-.96377-.9181-1.32007-1.48294-.36069-.59229-.59666-1.24715-.71013-1.96373s-.0914-1.41198.0636-2.0866c.15065-.70207.40456-1.32205.76096-1.86075 .37739-.57028.82107-1.03937 1.3319-1.40821 .53614-.37299 1.13127-.6162 1.78754-.73077s1.29802-.087 1.92791.0825 1.2051.46075 1.72682.87438c.5419.3816 1.00245.87659 1.38131,1.48617 .39904.57745.66793,1.22189.8042,1.93438z"/>
   <path d="m476.64 739.04-12.638-55.399c1.3943-0.3202 2.7812-0.64848 4.1598-0.98605 0.98848-0.24198 1.7344 0.10242 2.2487 1.0386 0.6071 1.5756 1.2181 3.1499 1.8331 4.7229 1.1777-2.5787 2.6434-4.8019 4.3919-6.6889 1.774-1.8942 3.9818-3.2474 6.6535-4.1193 2.1325-0.69583 4.1875-0.91467 6.226-0.65889 2.0288 0.22975 3.9766 0.94339 5.8824 2.1516 1.8952 1.1825 3.719 2.8569 5.471 5.0443s3.3658 4.8718 4.7877 8.0848c1.2638 2.856 2.0424 5.7 2.2684 8.5474 0.21487 2.8218-0.12239 5.4944-1.0368 7.9979-0.92495 2.4777-2.4474 4.734-4.5528 6.7194-2.0845 1.9481-4.7256 3.4528-7.857 4.4521-2.8858 0.92094-5.4824 1.2332-7.7579 0.97716-2.2451-0.26466-4.3356-0.97844-6.2626-2.1246l4.6862 18.179c-2.8534 0.74108-5.6891 1.4263-8.5034 2.0614zm6.2795-54.988c-2.2243 0.69587-4.0401 1.8042-5.4702 3.3639-1.4039 1.5524-2.591 3.5013-3.5716 5.8594l5.1255 19.884c1.8983 1.4137 3.8236 2.2441 5.7539 2.4863 1.9601 0.23389 4.0302 0.0237 6.1846-0.64221 4.219-1.3041 7.0295-3.7818 8.288-7.2338s0.87326-7.615-0.99346-12.482c-0.9883-2.5763-2.079-4.6948-3.248-6.3687-1.143-1.6836-2.3494-2.9578-3.6184-3.8317-1.2786-0.89997-2.6118-1.4174-4.0165-1.5579s-2.8744 0.0348-4.4339 0.52269z"/>
   <path d="m551.56 694.76c-0.97896 0.4171-1.9599 0.84063-2.9432 1.27-0.64722 0.28263-1.2154 0.41098-1.7047 0.38305s-0.94347-0.3453-1.3619-0.95343c-0.78051-1.0886-1.5635-2.1759-2.3487-3.2621-0.60614 1.3701-1.2213 2.6419-1.8491 3.8155-0.63927 1.1482-1.3728 2.2201-2.2037 3.2171-0.84259 0.97165-1.8139 1.8675-2.9179 2.6895-1.0786 0.81015-2.3592 1.5632-3.8478 2.262-1.5143 0.71081-3.0417 1.1831-4.5808 1.4139-1.5251 0.19339-2.9835 0.1085-4.3703-0.25746s-2.6816-1.0379-3.8806-2.0171c-1.1846-1.0168-2.1873-2.3965-3.0082-4.139-0.71382-1.5152-0.96514-3.1704-0.75803-4.9652 0.1952-1.8201 0.98728-3.7222 2.3762-5.706 1.4149-1.996 3.5093-4.068 6.2956-6.2025 2.7745-2.1597 6.3937-4.3339 10.88-6.4523l-1.3446-3.0218c-1.339-3.009-3.0306-4.9773-5.0865-5.8902-2.0406-0.95033-4.3999-0.81857-7.0357 0.39747-1.7306 0.79846-3.0863 1.6928-4.0724 2.6784-0.97154 0.94803-1.7636 1.8915-2.3793 2.8298-0.60138 0.90078-1.1135 1.7139-1.5381 2.4396-0.41036 0.68811-0.91523 1.1739-1.515 1.4575-0.46935 0.22202-0.93989 0.3056-1.4118 0.25082-0.4578-0.0923-0.87414-0.26601-1.2492-0.52105l-2.2666-1.5685c1.215-3.0773 2.8492-5.7232 4.9243-7.9363s4.6909-4.0565 7.8635-5.514c2.2853-1.0498 4.4992-1.6213 6.6184-1.7106s4.0815 0.23977 5.8712 0.98418 3.3873 1.8976 4.7905 3.4528 2.5604 3.4284 3.4847 5.6115zm-19.358 3.7224c1.2066-0.5642 2.2539-1.1904 3.1451-1.8803 0.87948-0.71531 1.653-1.4869 2.3229-2.3162 0.68375-0.86632 1.2767-1.796 1.7808-2.7904 0.52956-1.0059 0.99582-2.0878 1.4008-3.2467l-3.5914-8.0707c-3.1635 1.5314-5.7667 3.0352-7.8147 4.476-2.0598 1.4154-3.6414 2.7741-4.7474 4.065s-1.7812 2.5203-2.0259 3.6855c-0.21871 1.153-0.0777 2.26 0.42308 3.3208 0.4769 1.0104 1.0572 1.8021 1.7404 2.3756s1.423 0.96598 2.2187 1.178c0.78379 0.18673 1.6164 0.21171 2.4969 0.0759 0.86855-0.16108 1.7522-0.45213 2.6508-0.8723z"/>
   <path d="m561.59 690.71-14.985-39.611c1.4737-0.5574 2.9572-1.1051 4.4511-1.6418 0.84945-0.30516 1.4895-0.3679 1.914-0.19209s0.81872 0.59949 1.1821 1.27c0.89632 2.0202 1.788 4.0424 2.6749 6.0665 0.41671-2.6422 1.23-4.9701 2.4464-6.9704 0.30764-0.50338 0.64122-0.98577 1.0008-1.4467 1.8117-2.3304 4.3621-3.9695 7.6072-4.8213 1.3232-0.34727 2.5662-0.51164 3.7151-0.49823 1.1423-0.0136 2.2325 0.11184 3.2623 0.3735 0.0291 1.8924 0.0725 3.7834 0.1296 5.6728-0.0608 0.72889-0.45531 1.1753-1.1846 1.3472-0.42547 0.10036-1.1067 0.13338-2.0458 0.10883-0.94592-0.0515-2.2085 0.12693-3.768 0.55558-2.7891 0.76675-4.882 2.2001-6.2489 4.2193-0.16029 0.24079-0.31263 0.48975-0.45702 0.74682-1.0569 1.8877-1.6883 4.2098-1.8949 6.9524l8.7228 25.529c-2.169 0.73277-4.3422 1.5149-6.5221 2.3398z"/>
   <path d="m600.47824,682.49742c-2.46953.0513-4.46729-.6575-6.09502-2.2376-.0673-.0646-.134-.1307-.20001-.1982-1.65617-1.71911-2.78757-4.27801-3.23453-7.76354l-3.29902-25.72642c-1.94679.25198-3.87812.54695-5.79349.881-.50239.0876-.94709.0406-1.33781-.14275-.3958-.21073-.64667-.58896-.75026-1.13712l-.55157-2.91875c2.62518-.79033 5.30316-1.5127 8.03626-2.15678 .13915-4.41796.35053-8.84068.63744-13.26758 .0288-.4244.23451-.78501.62089-1.07995 .14529-.12222.30929-.22612.49196-.31154 .30291-.14019.65641-.2304 1.05972-.26929 1.71873-.16559 3.44895-.29461 5.18932-.38604l.75412,14.59648c4.97196-.25959 10.00929-.18097 15.06731.27019l-.4708,5.37629c-4.79337-.42557-9.58086-.49786-14.31777-.25121l1.31376,25.42884c.0922,1.78449.54259,3.08703 1.31249,3.92415s1.70814,1.24353 2.84605,1.2409c.65019-.001 1.20595-.0924 1.67419-.27839 .49202-.21347.91817-.43742 1.27802-.67529s.66321-.44736.90809-.63072c.26975-.21005.50041-.30889.68858-.29773 .32924.0195.60767.2759.82777.76715 .51539,1.22561.99754,2.4565 1.44526,3.69162-1.12341,1.09419-2.3786,1.9481-3.79389,2.58825-1.41409.61227-2.82898.93334-4.30706.96403z"/>
   <path d="m613.21139,678.14434c.12475-.7142.34012-1.37019.65489-1.96482 .33712-.59056.73331-1.08419 1.18943-1.47736 .47895-.38864 1.0156-.6626 1.60553-.81723 .13011-.0341.26069-.0608.39161-.08 .58625-.0437 1.18012-.00081 1.78337.12846 .77395.16587 1.47419.4548 2.10409.86865s1.15312.90255 1.57044,1.46814 .7014,1.18859.85093,1.87039c.17971.68762.20281,1.38718.0658,2.09889-.14228.7391-.42638,1.39451-.85569,1.96486-.39332.54889-.89818,1.00505-1.51591,1.36651s-1.30935.59326-2.0735.69357c-.76983.12761-1.56026.10584-2.36771-.066-.62938-.13392-1.21243-.34695-1.74741-.63819-.0906-.0705-.1788-.14699-.26462-.22956-.395-.3471-.71771-.78511-.96945-1.31889-.23163-.52976-.39942-1.11449-.4996-1.75646-.0744-.6656-.0518-1.36929.0778-2.11096z"/>
   <path d="m656.16 645.97c2.9668 0.24562 5.6116 0.93358 7.9639 2.0949 2.3793 1.1628 4.3898 2.7104 6.0331 4.6665 1.6708 1.9571 2.9483 4.2935 3.817 7.0232 0.89743 2.7025 1.3319 5.7133 1.2687 9.0369-0.0638 3.3515-0.61513 6.3595-1.6883 9.0159-1.0436 2.6571-2.5475 4.9084-4.5263 6.7354-1.9486 1.8281-4.3399 3.1917-7.1683 4.0627-2.7962 0.84494-5.9325 1.1334-9.3734 0.83655s-6.5167-1.122-9.1818-2.4428c-2.6311-1.3449-4.7813-3.1058-6.4344-5.2518s-2.7691-4.6291-3.3614-7.4298-0.59574-5.8518-0.0571-9.1519c0.5341-3.2725 1.5006-6.1484 2.8549-8.6432 1.3586-2.5222 3.0227-4.592 4.9843-6.23s4.1767-2.8224 6.6675-3.575c2.5174-0.74957 5.2347-0.99292 8.2016-0.74737zm-3.184 37.678c4.5646 0.39198 8.0709-0.79975 10.438-3.4675 2.3685-2.6956 3.6171-6.5736 3.8309-11.594 0.21493-5.0483-0.67941-9.0211-2.594-11.943s-4.8888-4.498-8.984-4.8392c-2.075-0.17284-3.9032 0.0153-5.5067 0.57746s-3.0052 1.4542-4.2132 2.6855c-1.1805 1.2346-2.1671 2.809-2.9554 4.7304-0.75678 1.8974-1.3073 4.087-1.6346 6.5734s-0.36091 4.7448-0.0832 6.7754c0.30711 2.0344 0.93159 3.7995 1.8796 5.2887 0.98127 1.4652 2.2862 2.6542 3.9092 3.5544s3.6006 1.4594 5.9134 1.658z"/>
   <path d="m685.01242,690.09692-.30081-42.46581c1.39719-.0107 2.79604-.0292 4.19636-.055 .79625-.0146 1.34894.12681 1.65852.42734s.52883.82656.6576,1.5783c.21912,2.20343.44105,4.40668.66575,6.60975 1.38578-2.99864 3.09227-5.35567 5.13206-7.08207 2.06635-1.75526 4.49997-2.69958 7.3409-2.85017 1.15841-.0614 2.21498.0185 3.17177.24152 .93312.19074 1.8087.48914 2.62773.89602l.0573.0286-.0335.32533c-.18285,1.76346-.36881,3.52717-.55795,5.29109-.15049.70867-.56323,1.08457-1.23695,1.1257-.39304.024-1.00466-.0647-1.83287-.26886-.82992-.23191-1.97238-.30777-3.42909-.23419-2.60535.1317-4.75186.9747-6.46853,2.54729-1.68857,1.57162-3.08976,3.80811-4.21375,6.71745l.71251,27.03197c-2.7093.0723-5.4253.1182-8.14711.1357z"/>
   <path d="m731.89 643.94c1.8006-0.21375 3.5011-0.21687 5.1094-6e-3 1.3672 0.1506 2.649 0.44404 3.8488 0.88271 0.23231 0.0849 0.46137 0.17529 0.68721 0.27116 2.7038-0.38477 5.3753-0.79289 8.0114-1.2381l2.2161-0.3864 0.52697-0.0969 0.088-0.0165 2.4881 12.776 0.86323 4.4314 1e-3 7e-3 -1e-3 -6e-3 -0.71795-3.6728-2.029-10.378v-1e-5c6e-3 0.13912-1e-3 0.27074-0.0304 0.39632h-1e-5c-0.074 0.25188-0.21659 0.47693-0.44274 0.67719-0.20892 0.18504-0.47965 0.34713-0.81439 0.48589-0.44809 0.14721-0.90231 0.29361-1.3623 0.43977-1.0602 0.33691-2.1269 0.66778-3.1995 0.99345 1.2106 1.6462 2.0045 3.566 2.3607 5.7697 0.32941 2.0384 0.22561 3.964-0.33286 5.775-0.53449 1.779-1.4467 3.3746-2.7392 4.7776-0.67942 0.75199-1.4577 1.4345-2.3334 2.0461-0.75334 0.52608-1.5794 0.99975-2.4777 1.4198-1.9136 0.90447-4.0836 1.5054-6.4973 1.7921-2.0648 0.24525-4.0424 0.22656-5.9234-0.0522-0.87175 0.65307-1.5248 1.3224-1.9569 2.0109-0.40294 0.68557-0.57568 1.3334-0.51519 1.9443 0.099 0.99965 0.60043 1.7217 1.5086 2.1621 0.90533 0.41264 2.0794 0.6555 3.5206 0.72226s3.067 0.0225 4.8746-0.1389 3.6496-0.29587 5.5273-0.40491c1.0923-0.0807 2.1744-0.13166 3.247-0.15273 0.79646-0.0156 1.5893-0.015 2.3787 2e-3 1.8524 0.0391 3.5521 0.28458 5.1022 0.74191 0.96086 0.28351 1.834 0.68048 2.6192 1.1932 0.48138 0.31444 0.93375 0.67159 1.3552 1.0722 1.1088 1.0538 1.8646 2.5324 2.2114 4.4546 0.32189 1.7849 0.0839 3.6159-0.68956 5.4766-0.21308 0.53325-0.46608 1.0564-0.75581 1.5687-0.71863 1.2699-1.6932 2.4785-2.9177 3.618-1.641 1.5573-3.7174 2.9094-6.1888 4.0344l-0.33324 0.14923c-2.6188 1.1828-5.6666 1.9925-9.1214 2.405s-6.5253 0.43217-9.1958 0.0824c-2.6395-0.35287-4.8543-0.97887-6.643-1.8602s-3.1634-1.975-4.1295-3.2705c-0.93328-1.2701-1.451-2.6444-1.5633-4.1191-0.15898-2.0868 0.41964-3.9062 1.7166-5.4665 1.3248-1.5905 3.1862-2.922 5.583-4.0142-1.3351-0.43606-2.4286-1.0819-3.2804-1.9325-0.82456-0.88091-1.299-2.1016-1.43-3.6587-0.0515-0.61172 0.0138-1.2472 0.19436-1.9067 0.17819-0.68723 0.47395-1.3706 0.88586-2.0507 0.44113-0.68268 0.98484-1.3471 1.6302-1.9944s1.4105-1.2369 2.2954-1.7709c-2.2872-0.95649-4.1299-2.3495-5.5285-4.1627-1.3723-1.8434-2.1521-4.063-2.3621-6.6496-0.16711-2.0581 0.0774-3.9532 0.72006-5.6872 0.66821-1.7641 1.6559-3.291 2.959-4.5871 1.3006-1.3238 2.8761-2.3994 4.7294-3.236 1.8807-0.83941 3.9612-1.3903 6.2529-1.6624zm19.723 43.155c-0.1601-1.0482-0.60978-1.84-1.3419-2.3791s-1.6642-0.89454-2.7931-1.0711c-0.38213-0.0689-0.78069-0.12467-1.1956-0.16753-0.81536-0.0841-1.6962-0.11786-2.643-0.10242-1.4288 0.0233-2.9238 0.10509-4.4866 0.24333-1.5663 0.11058-3.1622 0.2166-4.7875 0.31728s-3.1833 0.11478-4.6719 0.0445c-1.6273 0.92596-2.9322 1.9776-3.9134 3.1634-0.95106 1.183-1.3638 2.5226-1.2272 4.0232 0.086 0.94482 0.42376 1.7969 1.0172 2.5546 0.62648 0.78261 1.5191 1.4137 2.6796 1.8888 1.1632 0.50284 2.5931 0.83573 4.2885 0.99135 1.7291 0.18007 3.7351 0.13924 6.0118-0.13329 2.2152-0.26519 4.1774-0.69865 5.8806-1.2908 1.2596-0.43788 2.3543-0.94406 3.2835-1.515 0.32717-0.20101 0.63444-0.41017 0.9216-0.62735 1.1331-0.83822 1.9578-1.7647 2.4676-2.7724s0.67825-2.0642 0.50979-3.1675zm-17.082-20.918c1.5528-0.1844 2.8928-0.56265 4.0155-1.1288 1.1513-0.56981 2.0762-1.2844 2.7741-2.1394s1.1724-1.8225 1.426-2.9006c0.0547-0.24226 0.0991-0.48784 0.13326-0.73672 0.12161-0.88698 0.11259-1.8159-0.0247-2.7868-0.14067-0.99436-0.39002-1.8931-0.74604-2.6968-0.5639-1.2731-1.395-2.3077-2.4895-3.1087-1.7579-1.3104-4.1132-1.7727-7.0977-1.4183-2.9569 0.35115-5.1412 1.3532-6.5725 3.0425-1.4034 1.6865-1.9933 3.8161-1.7428 6.399 0.12117 1.2498 0.43097 2.3834 0.93362 3.3994 0.52837 0.98548 1.2314 1.8131 2.1104 2.4803s1.9313 1.1463 3.1553 1.4335 2.6008 0.34247 4.1249 0.16144z"/>
  </g>
 </g>
 <path d="m95.17827,39.81548c-.24367-.03254-.51189.04793-.62316.25768-.15519.2497-.02752.59426.27829.73512l.0034.00047c.32997.1791.75501.28898 1.12439.72298l.13995.16218-.14299.12888c-.42781.38496-.91334.39909-1.31276.47671l-.0037-.00052c-.36167.04749-.61967.32096-.53521.60939l-.00047.0029c.06536.28855.49018.47692.8544.44463l.004.00045c.3711-.01601.68856-.26251.62751-.53888-.03012-.13636-.0762-.20238-.12038-.24334-.02208-.02047-.04168-.03383-.05404-.04566l-.06553-.04661 .08918-.04469 .22927-.08316c.20314-.06551.50058-.16124.83165-.33681 .58311.34092 1.40487.724 1.88322.90967s.93949-.0095 1.11176-.15026c-.88918-.27746-1.70455-.64031-2.45309-1.06376 .74116-.44761 1.41118-.95257 1.98464-1.50812-.34353-.15115-.66859-.01542-.89104.1368-.48975.38412-1.03364.73492-1.61703,1.05115l-.75849-.42559c-.0878-.04784-.15468-.08724-.19225-.1183-.01879-.01554-.06656-.05001-.06656-.05001 .04888-.02387.10238-.07158.14109-.10831s.08497-.09224.11668-.19304c.08384-.26652-.13073-.5514-.41723-.64197-.05505-.02035-.1159-.02966-.16545-.04002l-9e-006,6.4e-005zm-.06122.22383c.11132.0083.22136.05436.28834.12714 .10034.10904.1096.24502.05484.3506s-.1697.17616-.31987.15787l-.0034-.00041c-.1385-.0098-.26399-.09505-.32885-.20441s-.06787-.23438.02356-.32842l.00042-.0029c.06527-.07953.17373-.10772.28498-.0995l-2.4e-005-5e-006zm-.21248,2.46689 .0306.0037c.16827.02014.27921.11301.31834.22791s.0026.24746-.14077.3305c-.09556.05536-.2422.07563-.3752.05291s-.24666-.08501-.29614-.18128l-.0035-.0034c-.0723-.11451-.02922-.2257.06838-.31023s.24948-.13609.39829-.12006l-3e-005-1.1e-005z" fill="#eee"/>
 <path d="m92.71 39.542 0.34683 5.244c3.5038-0.56501 6.4043-0.52085 10.248 0.74082 4.5018 1.4778 6.6278-0.1283 10.423-0.93662 1.8419-0.39228 5.0362-0.52231 6.9213 0.25213 0.14875-2.0642 0.88366-3.8984-0.44732-5.5692 0 0-2.5393-0.72412-5.8767 0.21457-5.6639 1.593-7.8271 1.8719-13.018 0.06057-2.5029-0.87334-4.7177-1.2015-8.5967-0.0063z" fill="none" stroke="#5488ba"/>
 <path d="m92.71 39.183 0.34683 5.244c3.5038-0.56501 6.4043-0.52085 10.248 0.74082 4.5018 1.4778 6.6278-0.1283 10.423-0.93662 1.8419-0.39228 5.0362-0.52231 6.9213 0.25213 0.14875-2.0642 0.88366-3.8984-0.44732-5.5692 0 0-2.5393-0.72412-5.8767 0.21457-5.6639 1.593-7.8271 1.8719-13.018 0.06057-2.5029-0.87334-4.7177-1.2015-8.5967-0.0063z" fill="none" stroke="#000" stroke-opacity=".0502"/>
 <path d="m93.068 45.162c1.0056 4.3596 0.44507 8.7015 0.16775 13.11 1.8993 1.7511 3.1904 3.5782 3.9383 5.4733 2.2407-0.01339 5.2651 0.52852 8.1953-0.04031 1.8553-0.36016 4.7498-0.17461 6.0792 0.03471 4.2368 0.6671 6.3157-0.08279 6.3157-0.08279 0.96847-1.7684 2.3182-3.0604 3.861-4.1109 0 0-1.5479-9.5737-0.93581-14.512" fill="none" stroke="#578abd"/>
 <path d="m93.068 45.641c1.0056 4.3596 0.44507 8.7015 0.16775 13.11 1.8993 1.7511 3.1904 3.5782 3.9383 5.4733 2.2407-0.01339 5.2651 0.52852 8.1953-0.04031 1.8553-0.36016 4.7498-0.17461 6.0792 0.03471 4.2368 0.6671 6.3157-0.08279 6.3157-0.08279 0.96847-1.7684 2.3182-3.0604 3.861-4.1109 0 0-1.5479-9.5737-0.93581-14.512" fill="none" filter="url(#ah)" stroke="#000" stroke-opacity=".0594"/>
 <path d="m80.306 22.789-7.0939 8.8901c-7.7328-5.9371-8.595-13.761-10.674-20.326" filter="url(#s)" opacity=".206"/>
 <path d="m84.16 22.24 7.2152 8.6108c7.7328-5.9371 8.975-13.243 10.838-20.562" filter="url(#t)" opacity=".206"/>
 <path d="m79.157 21.257c-2.1537-1.6765-4.2886-4.0002-5.9372-6.4623-0.5548-0.82859-1.6608-2.6718-1.6608-2.7677 0-0.09392 2.378-0.68042 3.6784-0.9072 4.6477-0.81059 10.116-0.6669 15.32 0.40251 2.0218 0.4155 2.4993 0.52663 2.4993 0.58178 0 0.02965-0.24247 0.45406-0.53881 0.94314-2.0703 3.4168-4.6398 6.2326-7.6954 8.4331l-0.59137 0.42589h-4.2405l-0.83396-0.64917z" fill="url(#n)"/>
 <path d="m67.538 3.7625c2.7397 8.0624 6.1678 14.452 12.235 18.521l-6.7711 7.9217c-7.7328-5.9371-8.057-12.685-10.136-19.25" fill="url(#p)"/>
 <path d="m97.08 3.6059c-2.7397 8.0624-6.5112 14.28-12.578 18.349l7 7.75c7.7328-5.9371 8.1143-13.028 10.193-19.593" fill="url(#r)"/>
 <path d="m92.23986,10.38051c-5.66017-1.32207-11.71555-1.61296-16.71611-.80303-.99102.16051-3.15.63446-3.89153.85428-.29707.08806-.56352.16012-.59212.16012-.2082,0-2.84041-6.24448-2.8296-6.71277 .001-.06195.0544-.18103.11772-.26462 .11193-.14776.16701-.14606 1.97963.06105 4.77324.54538 8.93922.74965 13.79874.67658 4.29795-.06463 7.44879-.2667 11.18592-.71737 .75732-.09133 1.39023-.15277 1.40646-.13653 .0497.04968-.74887,2.15257-1.359,3.57879-.7843,1.83334-1.64891,3.55174-1.79496,3.56746-.066.0071-.65326-.11168-1.30515-.26394z" fill="url(#o)"/>
 <path transform="matrix(.00656 0 0 .00656 79.815 23.872)" d="m568.57 398.79c0 104.54-84.746 189.29-189.29 189.29s-189.29-84.746-189.29-189.29 84.746-189.29 189.29-189.29 189.29 84.746 189.29 189.29z" fill="url(#c)"/>
 <path transform="matrix(-.00601 0 0 .00601 84.593 24.099)" d="m568.57 398.79c0 104.54-84.746 189.29-189.29 189.29s-189.29-84.746-189.29-189.29 84.746-189.29 189.29-189.29 189.29 84.746 189.29 189.29z" fill="url(#b)"/>
 <path transform="matrix(.00544 0 0 .00544 80.3 24.306)" d="m568.57 398.79c0 104.54-84.746 189.29-189.29 189.29s-189.29-84.746-189.29-189.29 84.746-189.29 189.29-189.29 189.29 84.746 189.29 189.29z" fill="url(#a)" filter="url(#d)"/>
 <path transform="matrix(.00656 0 0 .00656 79.921 23.972)" d="m344.46 348.79c0 9.7631-7.9146 17.678-17.678 17.678s-17.678-7.9146-17.678-17.678 7.9146-17.678 17.678-17.678 17.678 7.9146 17.678 17.678z" fill-opacity=".9412"/>
 <path transform="matrix(.0059 0 0 .0059 80.135 24.202)" d="m344.46 348.79c0 9.7631-7.9146 17.678-17.678 17.678s-17.678-7.9146-17.678-17.678 7.9146-17.678 17.678-17.678 17.678 7.9146 17.678 17.678z"/>
 <path transform="matrix(.00656 0 0 .00656 80.391 23.972)" d="m344.46 348.79c0 9.7631-7.9146 17.678-17.678 17.678s-17.678-7.9146-17.678-17.678 7.9146-17.678 17.678-17.678 17.678 7.9146 17.678 17.678z" fill-opacity=".9412"/>
 <path transform="matrix(.0059 0 0 .0059 80.606 24.202)" d="m344.46 348.79c0 9.7631-7.9146 17.678-17.678 17.678s-17.678-7.9146-17.678-17.678 7.9146-17.678 17.678-17.678 17.678 7.9146 17.678 17.678z"/>
 <path transform="matrix(.00656 0 0 .00656 80.391 24.482)" d="m344.46 348.79c0 9.7631-7.9146 17.678-17.678 17.678s-17.678-7.9146-17.678-17.678 7.9146-17.678 17.678-17.678 17.678 7.9146 17.678 17.678z" fill-opacity=".9412"/>
 <path transform="matrix(.0059 0 0 .0059 80.606 24.712)" d="m344.46 348.79c0 9.7631-7.9146 17.678-17.678 17.678s-17.678-7.9146-17.678-17.678 7.9146-17.678 17.678-17.678 17.678 7.9146 17.678 17.678z"/>
 <path transform="matrix(.00656 0 0 .00656 79.924 24.482)" d="m344.46 348.79c0 9.7631-7.9146 17.678-17.678 17.678s-17.678-7.9146-17.678-17.678 7.9146-17.678 17.678-17.678 17.678 7.9146 17.678 17.678z" fill-opacity=".9412"/>
 <path transform="matrix(.0059 0 0 .0059 80.139 24.712)" d="m344.46 348.79c0 9.7631-7.9146 17.678-17.678 17.678s-17.678-7.9146-17.678-17.678 7.9146-17.678 17.678-17.678 17.678 7.9146 17.678 17.678z"/>
 <path transform="matrix(.00656 0 0 .00656 79.741 29.88)" d="m568.57 398.79c0 104.54-84.746 189.29-189.29 189.29s-189.29-84.746-189.29-189.29 84.746-189.29 189.29-189.29 189.29 84.746 189.29 189.29z" fill="url(#c)"/>
 <path transform="matrix(-.00601 0 0 .00601 84.518 30.106)" d="m568.57 398.79c0 104.54-84.746 189.29-189.29 189.29s-189.29-84.746-189.29-189.29 84.746-189.29 189.29-189.29 189.29 84.746 189.29 189.29z" fill="url(#b)"/>
 <path transform="matrix(.00544 0 0 .00544 80.225 30.313)" d="m568.57 398.79c0 104.54-84.746 189.29-189.29 189.29s-189.29-84.746-189.29-189.29 84.746-189.29 189.29-189.29 189.29 84.746 189.29 189.29z" fill="url(#a)" filter="url(#d)"/>
 <path transform="matrix(.00656 0 0 .00656 79.847 29.979)" d="m344.46 348.79c0 9.7631-7.9146 17.678-17.678 17.678s-17.678-7.9146-17.678-17.678 7.9146-17.678 17.678-17.678 17.678 7.9146 17.678 17.678z" fill-opacity=".9412"/>
 <path transform="matrix(.0059 0 0 .0059 80.061 30.209)" d="m344.46 348.79c0 9.7631-7.9146 17.678-17.678 17.678s-17.678-7.9146-17.678-17.678 7.9146-17.678 17.678-17.678 17.678 7.9146 17.678 17.678z"/>
 <path transform="matrix(.00656 0 0 .00656 80.317 29.979)" d="m344.46 348.79c0 9.7631-7.9146 17.678-17.678 17.678s-17.678-7.9146-17.678-17.678 7.9146-17.678 17.678-17.678 17.678 7.9146 17.678 17.678z" fill-opacity=".9412"/>
 <path transform="matrix(.0059 0 0 .0059 80.531 30.209)" d="m344.46 348.79c0 9.7631-7.9146 17.678-17.678 17.678s-17.678-7.9146-17.678-17.678 7.9146-17.678 17.678-17.678 17.678 7.9146 17.678 17.678z"/>
 <path transform="matrix(.00656 0 0 .00656 80.317 30.489)" d="m344.46 348.79c0 9.7631-7.9146 17.678-17.678 17.678s-17.678-7.9146-17.678-17.678 7.9146-17.678 17.678-17.678 17.678 7.9146 17.678 17.678z" fill-opacity=".9412"/>
 <path transform="matrix(.0059 0 0 .0059 80.531 30.719)" d="m344.46 348.79c0 9.7631-7.9146 17.678-17.678 17.678s-17.678-7.9146-17.678-17.678 7.9146-17.678 17.678-17.678 17.678 7.9146 17.678 17.678z"/>
 <path transform="matrix(.00656 0 0 .00656 79.85 30.489)" d="m344.46 348.79c0 9.7631-7.9146 17.678-17.678 17.678s-17.678-7.9146-17.678-17.678 7.9146-17.678 17.678-17.678 17.678 7.9146 17.678 17.678z" fill-opacity=".9412"/>
 <path transform="matrix(.0059 0 0 .0059 80.064 30.719)" d="m344.46 348.79c0 9.7631-7.9146 17.678-17.678 17.678s-17.678-7.9146-17.678-17.678 7.9146-17.678 17.678-17.678 17.678 7.9146 17.678 17.678z"/>
 <path transform="matrix(.00656 0 0 .00656 79.72 35.791)" d="m568.57 398.79c0 104.54-84.746 189.29-189.29 189.29s-189.29-84.746-189.29-189.29 84.746-189.29 189.29-189.29 189.29 84.746 189.29 189.29z" fill="url(#c)"/>
 <path transform="matrix(-.00601 0 0 .00601 84.497 36.018)" d="m568.57 398.79c0 104.54-84.746 189.29-189.29 189.29s-189.29-84.746-189.29-189.29 84.746-189.29 189.29-189.29 189.29 84.746 189.29 189.29z" fill="url(#b)"/>
 <path transform="matrix(.00544 0 0 .00544 80.204 36.225)" d="m568.57 398.79c0 104.54-84.746 189.29-189.29 189.29s-189.29-84.746-189.29-189.29 84.746-189.29 189.29-189.29 189.29 84.746 189.29 189.29z" fill="url(#a)" filter="url(#d)"/>
 <path transform="matrix(.00656 0 0 .00656 79.826 35.891)" d="m344.46 348.79c0 9.7631-7.9146 17.678-17.678 17.678s-17.678-7.9146-17.678-17.678 7.9146-17.678 17.678-17.678 17.678 7.9146 17.678 17.678z" fill-opacity=".9412"/>
 <path transform="matrix(.0059 0 0 .0059 80.04 36.121)" d="m344.46 348.79c0 9.7631-7.9146 17.678-17.678 17.678s-17.678-7.9146-17.678-17.678 7.9146-17.678 17.678-17.678 17.678 7.9146 17.678 17.678z"/>
 <path transform="matrix(.00656 0 0 .00656 80.296 35.891)" d="m344.46 348.79c0 9.7631-7.9146 17.678-17.678 17.678s-17.678-7.9146-17.678-17.678 7.9146-17.678 17.678-17.678 17.678 7.9146 17.678 17.678z" fill-opacity=".9412"/>
 <path transform="matrix(.0059 0 0 .0059 80.51 36.121)" d="m344.46 348.79c0 9.7631-7.9146 17.678-17.678 17.678s-17.678-7.9146-17.678-17.678 7.9146-17.678 17.678-17.678 17.678 7.9146 17.678 17.678z"/>
 <path transform="matrix(.00656 0 0 .00656 80.296 36.401)" d="m344.46 348.79c0 9.7631-7.9146 17.678-17.678 17.678s-17.678-7.9146-17.678-17.678 7.9146-17.678 17.678-17.678 17.678 7.9146 17.678 17.678z" fill-opacity=".9412"/>
 <path transform="matrix(.0059 0 0 .0059 80.51 36.631)" d="m344.46 348.79c0 9.7631-7.9146 17.678-17.678 17.678s-17.678-7.9146-17.678-17.678 7.9146-17.678 17.678-17.678 17.678 7.9146 17.678 17.678z"/>
 <path transform="matrix(.00656 0 0 .00656 79.829 36.401)" d="m344.46 348.79c0 9.7631-7.9146 17.678-17.678 17.678s-17.678-7.9146-17.678-17.678 7.9146-17.678 17.678-17.678 17.678 7.9146 17.678 17.678z" fill-opacity=".9412"/>
 <path transform="matrix(.0059 0 0 .0059 80.043 36.631)" d="m344.46 348.79c0 9.7631-7.9146 17.678-17.678 17.678s-17.678-7.9146-17.678-17.678 7.9146-17.678 17.678-17.678 17.678 7.9146 17.678 17.678z"/>
 <g transform="translate(2.1015 2.3053)">
  <path transform="matrix(.98537 .17045 -.17045 .98537 -34.669 -46.712)" d="m89.954 55.265s3.5877 12.867 3.2368 19.421c-0.18397 3.4356-2.0401 8.3748-2.4546 11.79-0.91034 7.501 0.37381 20.809 0.37381 20.809s-3.75-13.652-3.2368-20.577c0.3045-4.108 1.6555-9.5381 2.1114-13.632 0.72754-6.5324-0.03065-17.811-0.03065-17.811z" fill-opacity=".2055" filter="url(#u)" opacity=".642"/>
  <path d="m61.826 49.19c4.4072 11.45 9.7518 22.483 7.1001 33.329-3.078 12.59 0.29211 25.59 0.40428 38.379-2.464-12.443-8.4376-24.85-6.6932-37.545 1.3084-9.5218-1.9162-22.353-0.81117-34.164z" fill-opacity=".3607" filter="url(#ak)" opacity=".3539"/>
  <path transform="matrix(.99361 .11286 -.11286 .99361 6.4156 -53.502)" d="m103.67 74.764c4.5819 11.904 7.7278 24.366 4.2284 32.262-5.0677 11.434 3.1675 27.083 3.2759 39.447-2.8042-14.161-18.533-30.125-12.346-43.41 3.5226-7.5636 3.9118-18.364 4.8412-28.298z" fill-opacity=".137" filter="url(#aj)" opacity=".4979"/>
  <path d="m38.06 71.32c3.2163 1.1168 12.099-46.339 11.673-46.694 1.6246 27.975 5.8486 61.988-12.924 70.875 0.47622-7.9106 3.3619-9.741 1.2507-24.181z" fill-opacity=".242" filter="url(#am)" opacity=".4115"/>
  <path transform="matrix(-1 0 0 1 177.96 -10.233)" d="m65.004 71.382c-1.154-4.3201-3.3525 13.989-9.5975 24.005 0 0 1.5591-22.101 3.6431-25.264 6.6909-10.153 13.248-20.421 13.042-20.593 0.6102 10.508-4.0823 20.833-2.6772 31.821 2.1638 16.921-1.9651 17.835-13.687 23.384 0.47622-7.9106 10.241 0.19602 9.2768-33.353z" fill-opacity=".2283" filter="url(#w)" opacity=".3704"/>
  <path transform="matrix(1.0874 0 0 1.0874 -21.189 -28.375)" d="m39.398 76.595c7.6131-5.8262 14.551-12.816 18.344-25.223-0.21868 8.0673 2.097 17.517-3.7522 22.513z" fill="url(#e)" filter="url(#i)" opacity=".428"/>
  <path transform="matrix(.87735 -.47985 .47985 .87735 -32.094 67.722)" d="m160.09 72.842 1.2507-12.09 8.9636 9.172-16.051-27.099c2.9359 15.179-0.9187 15.756 5.8367 30.018z" fill-opacity=".1233" filter="url(#l)" opacity=".3992"/>
  <path transform="matrix(.55077 .44552 -.44552 .55077 120.89 -14.178)" d="m81.506 138.92c5.0029 6.4621 5.5863 13.12 11.048 8.7551 5.9636-4.7656 0.56866-18.339 0.83382-27.516 1.518 11.951 10.414 22.338 2.7539 31.565-6.6496 8.0093-10.598-5.0836-14.636-12.804z" fill-opacity=".2283" filter="url(#al)" opacity=".3045"/>
  <path transform="matrix(-1 0 0 1 125.77 -33.322)" d="m87.174 141.15s-3.6427 5.4542-4.586 8.5466c-1.2225 4.0076-0.14459 8.4661-1.2507 12.507-1.1326 4.1379-5.4198 11.673-5.4198 11.673l12.09-1.4592c-0.10539-4.3343-1.6273-8.7097-1.5497-12.922 0.10876-5.9009 3.6277-11.891 0.71588-18.346z" fill-opacity=".1781" filter="url(#f)" opacity=".3745"/>
  <path transform="matrix(.30443 .95254 -.95254 .30443 70.357 -59.506)" d="m69.395 92.17-0.97426-17.363 14.547 16.17-19.318-37.267c-1.4166 12.484-1.0102 24.199 5.7452 38.46z" fill-opacity=".274" filter="url(#j)" opacity=".3745"/>
  <path transform="matrix(-.94217 0 0 .84552 150.32 -15.416)" d="m77.337 151.85s5.1665 10.049 10.654 9.6218c7.9567-0.61945 9.4354-21.73 8.337-29.635-0.79682-5.7344 10.462-18.662 10.462-18.662s-6.7298 17.297-5.9551 23.457c0.94151 7.4855-4.9079 31.365-12.45 31.166-6.0987-0.16036-11.048-15.948-11.048-15.948z" fill-opacity=".2283" filter="url(#g)" opacity=".5014"/>
  <path transform="matrix(-1.5411 .24238 .38502 .97018 182.11 -80.79)" d="m93.596 86.137s7.0244 27.949 7.8912 34.802c0.6527 5.1603 0.4231 13.707-0.7251 16.52-2.8181 6.9033-0.86646 26.7-0.86646 26.7s-4.2493-18.899-2.7883-29.068c0.56924-3.9621 2.3503-10.338 1.7449-14.741-0.9013-6.5552-5.2562-34.213-5.2562-34.213z" fill-opacity=".21" filter="url(#h)" opacity=".4115"/>
  <path transform="matrix(.81517 -.57922 .57922 .81517 -115.48 57.232)" d="m145.54 123.13c-7.8161 19.045-15.253 51.149-32.932 63.334l6.9948 4.7082c19.75-20.503 20.734-48.941 25.938-68.042z" fill-opacity=".1416" filter="url(#k)" opacity=".5638"/>
  <path d="m53.802 76.532c0.20647-14.413 3.4902-40.96 12.647-52.74l4.1691 2.9184c-7.6229 11.096-13.773 36.69-16.816 49.821z" fill-opacity=".1598" filter="url(#ai)" opacity=".4074"/>
  <path transform="matrix(-1.0874 0 0 1.0874 183.63 -28.154)" d="m39.398 76.595c7.6131-5.8262 14.551-12.816 18.344-25.223-0.21868 8.0673 2.097 17.517-3.7522 22.513z" fill="url(#e)" filter="url(#i)" opacity=".2757"/>
  <path transform="matrix(.96844 .12055 -.24195 .48251 21.603 -23.642)" d="m93.596 86.137s9.6257 28.884 10.492 35.737c0.6527 5.1603-0.32089 12.309-1.4691 15.122-2.8181 6.9033-2.7238 27.164-2.7238 27.164s-4.2493-18.899-2.7883-29.068c0.56924-3.9621 2.3503-10.338 1.7449-14.741-0.9013-6.5552-5.2562-34.213-5.2562-34.213z" fill-opacity=".2237" filter="url(#x)" opacity=".3457"/>
  <path transform="matrix(-1.1875 .16551 .29666 .6625 194.91 -55.854)" d="m93.596 86.137s7.0244 27.949 7.8912 34.802c0.6527 5.1603 0.4231 13.707-0.7251 16.52-2.8181 6.9033-0.86646 26.7-0.86646 26.7s-4.2493-18.899-2.7883-29.068c0.56924-3.9621 2.3503-10.338 1.7449-14.741-0.9013-6.5552-5.2562-34.213-5.2562-34.213z" fill-opacity=".3059" filter="url(#h)" opacity=".284"/>
  <path transform="matrix(.68835 .72538 -.72538 .68835 47.783 -42.04)" d="m163.97 86.529c-0.90701-8.5338-3.5973-13.911-2.6221-25.776l12.14 16.929-17.536-32.197c-0.84628 15.278 1.2625 26.783 8.0179 41.044z" fill-opacity=".1233" filter="url(#l)" opacity=".7613"/>
  <path d="m123.99 108.59s-3.6427 5.4542-4.586 8.5466c-1.2225 4.0076-0.14459 8.4661-1.2507 12.507-1.1326 4.1379-5.4198 11.673-5.4198 11.673l12.09-1.4592c-0.10539-4.3343-1.6273-8.7097-1.5497-12.922 0.10876-5.9009 3.6277-11.891 0.71588-18.346z" fill-opacity=".1279" filter="url(#f)" opacity=".3745"/>
  <path transform="matrix(-.97116 -.23844 -.23844 .97116 217.23 -11.435)" d="m138.47 139.1c-7.8161 19.045-8.1825 35.176-25.862 47.361l8.1861 1.4588c19.75-20.503 12.473-29.719 17.676-48.819z" fill-opacity=".1416" filter="url(#k)" opacity=".5638"/>
  <path transform="matrix(.94217 0 0 .84552 -12.835 -.51077)" d="m77.337 151.85s5.1665 10.049 10.654 9.6218c7.9567-0.61945 9.841-13.593 8.7426-21.498-0.79682-5.7344 2.755-11.882 2.755-11.882s0.97755 8.257 1.7522 14.416c0.94151 7.4855-5.3135 25.488-12.855 25.29-6.0987-0.16036-11.048-15.948-11.048-15.948z" fill-opacity=".2283" filter="url(#g)" opacity=".5014"/>
  <path d="m13.657 53.677c14.931-6.7086 25.735-15.481 24.21-30.418-2.4444 11.077-11.873 20.99-24.21 30.418z" fill-opacity=".1735" filter="url(#v)" opacity=".428"/>
  <path transform="matrix(-.30443 .95254 .95254 .30443 91.712 -60.747)" d="m69.395 92.17-0.97426-17.363 14.547 16.17-19.318-37.267c-1.4166 12.484-1.0102 24.199 5.7452 38.46z" fill-opacity=".274" filter="url(#j)" opacity=".3745"/>
 </g>
</svg>
